<svg width="220" height="350" viewBox="0 0 220 350" fill="none" xmlns="http://www.w3.org/2000/svg">
<rect width="220" height="350" rx="16" fill="#D3D3D3"/>
<mask id="mask0" mask-type="alpha" maskUnits="userSpaceOnUse" x="0" y="0" width="220" height="350">
<rect width="220" height="350" rx="16" fill="#E1E2E2"/>
</mask>
<g mask="url(#mask0)">
<path fill-rule="evenodd" clip-rule="evenodd" d="M123.787 202.995H106.468V181.22H123.787V187.441H112.766V196.773H123.787C125.523 196.773 126.936 195.377 126.936 193.662V156.333C126.936 154.617 125.523 153.222 123.787 153.222L122.212 153.221V147H123.787C128.996 147 133.234 151.186 133.234 156.333V193.662C133.234 198.809 128.996 202.995 123.787 202.995ZM97.0211 202.995H95.4466C90.2376 202.995 86 198.809 86 193.662V156.333C86 151.186 90.2376 147 95.4466 147H97.0211V153.221L95.4466 153.222C93.7107 153.222 92.2977 154.617 92.2977 156.333V160.999H112.766V176.553H106.468V167.22H92.2977V193.662C92.2977 195.377 93.7107 196.773 95.4466 196.773H97.0211V202.995Z" fill="white" fill-opacity="0.38"/>
</g>
</svg>
