<svg width="57" height="57" viewBox="0 0 57 57" fill="none" xmlns="http://www.w3.org/2000/svg">
<rect x="0.578125" y="0.688477" width="55" height="55" rx="27.5" fill="white"/>
<g clip-path="url(#clip0_4043_29066)">
<path d="M39.0236 35.2184C38.5888 36.2229 38.0742 37.1475 37.4779 37.9975C36.6651 39.1564 35.9996 39.9585 35.4868 40.4039C34.6917 41.1351 33.8399 41.5095 32.9277 41.5308C32.2729 41.5308 31.4832 41.3445 30.5639 40.9665C29.6416 40.5903 28.7941 40.4039 28.0191 40.4039C27.2063 40.4039 26.3346 40.5903 25.4022 40.9665C24.4684 41.3445 23.7161 41.5415 23.141 41.561C22.2662 41.5983 21.3944 41.2132 20.5241 40.4039C19.9686 39.9194 19.2738 39.0889 18.4415 37.9123C17.5485 36.6559 16.8144 35.1989 16.2392 33.5379C15.6232 31.7437 15.3145 30.0063 15.3145 28.3243C15.3145 26.3976 15.7308 24.7358 16.5647 23.3433C17.2201 22.2247 18.0919 21.3424 19.1832 20.6946C20.2744 20.0469 21.4535 19.7168 22.7232 19.6957C23.418 19.6957 24.3291 19.9106 25.4613 20.333C26.5903 20.7568 27.3153 20.9717 27.6331 20.9717C27.8707 20.9717 28.6761 20.7204 30.0413 20.2194C31.3323 19.7548 32.422 19.5624 33.3146 19.6382C35.7334 19.8334 37.5507 20.7869 38.7592 22.5048C36.5959 23.8155 35.5258 25.6514 35.5471 28.0065C35.5666 29.8409 36.2321 31.3675 37.54 32.5796C38.1327 33.1421 38.7947 33.5769 39.5312 33.8857C39.3714 34.3489 39.2028 34.7925 39.0236 35.2184ZM33.4761 13.3886C33.4761 14.8265 32.9508 16.169 31.9038 17.4116C30.6402 18.8888 29.1119 19.7424 27.4546 19.6077C27.4335 19.4352 27.4212 19.2536 27.4212 19.0629C27.4212 17.6825 28.0221 16.2053 29.0892 14.9975C29.6219 14.386 30.2995 13.8775 31.1211 13.4719C31.941 13.0723 32.7165 12.8513 33.4459 12.8135C33.4672 13.0057 33.4761 13.1979 33.4761 13.3886V13.3886Z" fill="black"/>
</g>
<rect x="0.578125" y="0.688477" width="55" height="55" rx="27.5" stroke="#E6E6EA"/>
<defs>
<clipPath id="clip0_4043_29066">
<rect width="30" height="30" fill="white" transform="translate(12.4219 12.1885)"/>
</clipPath>
</defs>
</svg>
