<svg width="57" height="57" viewBox="0 0 57 57" fill="none" xmlns="http://www.w3.org/2000/svg">
<rect x="0.578125" y="0.688477" width="55" height="55" rx="27.5" fill="white"/>
<g clip-path="url(#clip0_4043_29045)">
<path d="M48.0781 28.1885C48.0781 17.1485 39.1181 8.18848 28.0781 8.18848C17.0381 8.18848 8.07812 17.1485 8.07812 28.1885C8.07812 37.8685 14.9581 45.9285 24.0781 47.7885V34.1885H20.0781V28.1885H24.0781V23.1885C24.0781 19.3285 27.2181 16.1885 31.0781 16.1885H36.0781V22.1885H32.0781C30.9781 22.1885 30.0781 23.0885 30.0781 24.1885V28.1885H36.0781V34.1885H30.0781V48.0885C40.1781 47.0885 48.0781 38.5685 48.0781 28.1885Z" fill="#1877F2"/>
</g>
<rect x="0.578125" y="0.688477" width="55" height="55" rx="27.5" stroke="#E6E6EA"/>
<defs>
<clipPath id="clip0_4043_29045">
<rect width="40" height="40" fill="white" transform="translate(8.07812 8.18848)"/>
</clipPath>
</defs>
</svg>
