<svg width="24" height="24" viewBox="0 0 24 24" fill="none" xmlns="http://www.w3.org/2000/svg">
<path fill-rule="evenodd" clip-rule="evenodd" d="M11.9962 0.897461C9.27836 0.898871 6.64963 1.86148 4.58006 3.61316C2.51049 5.36485 1.13505 7.79138 0.699661 10.4589C0.264275 13.1264 0.797338 15.8609 2.20354 18.1734C3.60975 20.486 5.79739 22.2258 8.3753 23.0818C8.94403 23.1873 9.15825 22.8349 9.15825 22.5351C9.15825 22.2354 9.14687 21.3665 9.14308 20.4164C5.9582 21.1044 5.28521 19.0724 5.28521 19.0724C4.76577 17.753 4.01505 17.4061 4.01505 17.4061C2.97617 16.7011 4.09278 16.7143 4.09278 16.7143C5.24351 16.7954 5.84826 17.8887 5.84826 17.8887C6.86818 19.6285 8.52696 19.1252 9.1791 18.8312C9.28147 18.0941 9.57911 17.5927 9.90708 17.3081C7.36297 17.0216 4.68994 16.0452 4.68994 11.6833C4.67417 10.5521 5.09635 9.45813 5.86911 8.62776C5.75157 8.34125 5.35914 7.18387 5.98095 5.6118C5.98095 5.6118 6.94211 5.30643 9.12982 6.7786C11.0063 6.26836 12.9861 6.26836 14.8626 6.7786C17.0484 5.30643 18.0077 5.6118 18.0077 5.6118C18.6314 7.1801 18.239 8.33748 18.1214 8.62776C18.8966 9.45827 19.3197 10.5541 19.3025 11.6871C19.3025 16.0584 16.6238 17.0216 14.0759 17.3024C14.4853 17.6568 14.8512 18.3486 14.8512 19.4117C14.8512 20.9348 14.838 22.16 14.838 22.5351C14.838 22.8386 15.0446 23.193 15.6247 23.0818C18.2029 22.2257 20.3908 20.4856 21.797 18.1726C23.2031 15.8597 23.7359 13.1248 23.3 10.457C22.8642 7.78928 21.488 5.36272 19.4178 3.61134C17.3475 1.85995 14.7182 0.897977 12 0.897461H11.9962Z" fill="black"/>
</svg>
