<svg width="57" height="57" viewBox="0 0 57 57" fill="none" xmlns="http://www.w3.org/2000/svg">
<rect x="0.578125" y="0.688477" width="55" height="55" rx="27.5" fill="white"/>
<g clip-path="url(#clip0_4043_28997)">
<path fill-rule="evenodd" clip-rule="evenodd" d="M43.4381 28.552C43.4381 27.4175 43.3363 26.3266 43.1472 25.2793H28.0781V31.4684H36.689C36.3181 33.4684 35.1909 35.1629 33.4963 36.2975V40.312H38.6672C41.6927 37.5266 43.4381 33.4248 43.4381 28.552Z" fill="#4285F4"/>
<path fill-rule="evenodd" clip-rule="evenodd" d="M28.0785 44.1885C32.3985 44.1885 36.0203 42.7558 38.6675 40.3122L33.4966 36.2976C32.0639 37.2576 30.2312 37.8249 28.0785 37.8249C23.9112 37.8249 20.3839 35.0103 19.1257 31.2285H13.7803V35.374C16.413 40.6031 21.8239 44.1885 28.0785 44.1885Z" fill="#34A853"/>
<path fill-rule="evenodd" clip-rule="evenodd" d="M19.1254 31.2284C18.8054 30.2684 18.6236 29.2429 18.6236 28.1884C18.6236 27.1338 18.8054 26.1084 19.1254 25.1484V21.0029H13.7799C12.6963 23.1629 12.0781 25.6066 12.0781 28.1884C12.0781 30.7702 12.6963 33.2138 13.7799 35.3738L19.1254 31.2284Z" fill="#FBBC05"/>
<path fill-rule="evenodd" clip-rule="evenodd" d="M28.0785 18.5521C30.4275 18.5521 32.5366 19.3594 34.1948 20.9448L38.7839 16.3557C36.013 13.7739 32.3912 12.1885 28.0785 12.1885C21.8239 12.1885 16.413 15.7739 13.7803 21.003L19.1257 25.1485C20.3839 21.3667 23.9112 18.5521 28.0785 18.5521Z" fill="#EA4335"/>
</g>
<rect x="0.578125" y="0.688477" width="55" height="55" rx="27.5" stroke="#E6E6EA"/>
<defs>
<clipPath id="clip0_4043_28997">
<rect width="32" height="32" fill="white" transform="translate(12.0781 12.1885)"/>
</clipPath>
</defs>
</svg>
