<svg width="57" height="57" viewBox="0 0 57 57" fill="none" xmlns="http://www.w3.org/2000/svg">
<rect x="0.078125" y="0.188477" width="56" height="56" rx="28" fill="#06C755"/>
<path fill-rule="evenodd" clip-rule="evenodd" d="M44.0781 25.9724C44.0781 18.9607 36.9007 13.2549 28.0781 13.2549C19.2555 13.2549 12.0781 18.9607 12.0781 25.9724C12.0781 32.26 17.7769 37.5265 25.4582 38.521C25.9801 38.6312 26.6894 38.8575 26.8679 39.2938C27.0299 39.6904 26.9744 40.3118 26.9204 40.7114C26.9204 40.7114 26.7329 41.8176 26.6924 42.0526L26.6864 42.0861C26.6098 42.5098 26.4158 43.5836 28.0781 42.8988C29.7862 42.1951 37.2921 37.5838 40.6484 33.7981C42.9669 31.308 44.0781 28.7754 44.0781 25.9724ZM38.7543 30.0226H34.2552C34.1757 30.0226 34.0994 29.9916 34.0432 29.9365C33.9869 29.8814 33.9553 29.8067 33.9553 29.7288V22.883C33.9553 22.8051 33.9869 22.7304 34.0432 22.6753C34.0994 22.6202 34.1757 22.5892 34.2552 22.5892H38.7543C38.8338 22.5892 38.9101 22.6202 38.9663 22.6753C39.0226 22.7304 39.0542 22.8051 39.0542 22.883V23.9951C39.0542 24.073 39.0226 24.1477 38.9663 24.2028C38.9101 24.2579 38.8338 24.2889 38.7543 24.2889H35.6994V25.4421H38.7543C38.8338 25.4421 38.9101 25.4731 38.9663 25.5282C39.0226 25.5833 39.0542 25.658 39.0542 25.7359V26.8656C39.0542 26.9435 39.0226 27.0183 38.9663 27.0734C38.9101 27.1285 38.8338 27.1594 38.7543 27.1594H35.6994V28.3141H38.7543C38.8338 28.3141 38.9101 28.345 38.9663 28.4001C39.0226 28.4552 39.0542 28.53 39.0542 28.6079V29.7185C39.0556 29.7579 39.0489 29.7973 39.0344 29.8341C39.02 29.8709 38.9981 29.9046 38.9702 29.9329C38.9422 29.9613 38.9086 29.9839 38.8715 29.9993C38.8344 30.0147 38.7946 30.0226 38.7543 30.0226ZM22.3395 29.9365C22.2832 29.9916 22.2069 30.0226 22.1274 30.0226L22.1379 30.0182H17.6389C17.5593 30.0182 17.483 29.9872 17.4268 29.9321C17.3705 29.877 17.3389 29.8023 17.3389 29.7244V22.8889C17.3389 22.811 17.3705 22.7362 17.4268 22.6811C17.483 22.626 17.5593 22.5951 17.6389 22.5951H18.7726C18.8522 22.5951 18.9285 22.626 18.9847 22.6811C19.041 22.7362 19.0726 22.811 19.0726 22.8889V28.3244H22.1274C22.2069 28.3244 22.2832 28.3553 22.3395 28.4104C22.3957 28.4655 22.4273 28.5403 22.4273 28.6182V29.7288C22.4273 29.8067 22.3957 29.8814 22.3395 29.9365ZM24.8328 22.5848H23.6991C23.5301 22.5848 23.3931 22.719 23.3931 22.8845V29.7244C23.3931 29.8899 23.5301 30.0241 23.6991 30.0241H24.8328C25.0018 30.0241 25.1387 29.8899 25.1387 29.7244V22.8845C25.1387 22.719 25.0018 22.5848 24.8328 22.5848ZM31.4239 22.5833H32.5576C32.5975 22.5833 32.637 22.5911 32.6738 22.6062C32.7106 22.6214 32.7439 22.6435 32.7719 22.6715C32.7998 22.6994 32.8218 22.7325 32.8365 22.7688C32.8512 22.8051 32.8584 22.8439 32.8576 22.883V29.6979C32.8576 29.7759 32.826 29.8506 32.7697 29.9057C32.7135 29.9608 32.6372 29.9917 32.5576 29.9917H31.4299C31.4026 29.9913 31.3754 29.9879 31.3489 29.9815H31.2784L31.2604 29.9697C31.2298 29.9492 31.2034 29.9233 31.1824 29.8933L27.9836 25.6625V29.7655C27.9836 29.8434 27.952 29.9182 27.8958 29.9733C27.8395 30.0284 27.7632 30.0593 27.6837 30.0593H26.5484C26.4689 30.0593 26.3926 30.0284 26.3363 29.9733C26.2801 29.9182 26.2485 29.8434 26.2485 29.7655V22.9256C26.2485 22.8477 26.2801 22.773 26.3363 22.7179C26.3926 22.6628 26.4689 22.6318 26.5484 22.6318H27.8187L27.8351 22.6406H27.8441L27.8606 22.6524H27.8696L27.8861 22.6656L27.9041 22.6832C27.9138 22.6925 27.9223 22.7029 27.9296 22.7141L31.1239 26.9405V22.8771C31.1239 22.7992 31.1555 22.7245 31.2118 22.6694C31.268 22.6143 31.3443 22.5833 31.4239 22.5833Z" fill="white"/>
</svg>
