<svg width="57" height="57" viewBox="0 0 57 57" fill="none" xmlns="http://www.w3.org/2000/svg">
<rect x="0.578125" y="0.688477" width="55" height="55" rx="27.5" fill="white"/>
<path d="M18.8013 32.4099C18.8013 34.2601 17.2899 35.7715 15.4397 35.7715C13.5895 35.7715 12.0781 34.2601 12.0781 32.4099C12.0781 30.5597 13.5895 29.0483 15.4397 29.0483H18.8013V32.4099Z" fill="#E01E5A"/>
<path d="M20.4951 32.4099C20.4951 30.5597 22.0065 29.0483 23.8567 29.0483C25.7068 29.0483 27.2182 30.5597 27.2182 32.4099V40.8268C27.2182 42.677 25.7068 44.1884 23.8567 44.1884C22.0065 44.1884 20.4951 42.677 20.4951 40.8268V32.4099Z" fill="#E01E5A"/>
<path d="M23.8567 18.9116C22.0065 18.9116 20.4951 17.4002 20.4951 15.55C20.4951 13.6999 22.0065 12.1885 23.8567 12.1885C25.7068 12.1885 27.2182 13.6999 27.2182 15.55V18.9116H23.8567Z" fill="#36C5F0"/>
<path d="M23.8566 20.605C25.7068 20.605 27.2182 22.1164 27.2182 23.9665C27.2182 25.8167 25.7068 27.3281 23.8566 27.3281H15.4397C13.5895 27.3281 12.0781 25.8167 12.0781 23.9665C12.0781 22.1164 13.5895 20.605 15.4397 20.605H23.8566Z" fill="#36C5F0"/>
<path d="M37.3555 23.9665C37.3555 22.1164 38.8669 20.605 40.717 20.605C42.5672 20.605 44.0786 22.1164 44.0786 23.9665C44.0786 25.8167 42.5672 27.3281 40.717 27.3281H37.3555V23.9665Z" fill="#2EB67D"/>
<path d="M35.6616 23.967C35.6616 25.8171 34.1502 27.3285 32.3 27.3285C30.4499 27.3285 28.9385 25.8171 28.9385 23.967V15.55C28.9385 13.6999 30.4499 12.1885 32.3 12.1885C34.1502 12.1885 35.6616 13.6999 35.6616 15.55V23.967Z" fill="#2EB67D"/>
<path d="M32.3 37.4653C34.1502 37.4653 35.6616 38.9767 35.6616 40.8269C35.6616 42.6771 34.1502 44.1885 32.3 44.1885C30.4499 44.1885 28.9385 42.6771 28.9385 40.8269V37.4653H32.3Z" fill="#ECB22E"/>
<path d="M32.3 35.7715C30.4499 35.7715 28.9385 34.2601 28.9385 32.4099C28.9385 30.5597 30.4499 29.0483 32.3 29.0483H40.717C42.5671 29.0483 44.0785 30.5597 44.0785 32.4099C44.0785 34.2601 42.5671 35.7715 40.717 35.7715H32.3Z" fill="#ECB22E"/>
<rect x="0.578125" y="0.688477" width="55" height="55" rx="27.5" stroke="#E6E6EA"/>
</svg>
