<svg width="24" height="24" viewBox="0 0 24 24" fill="none" xmlns="http://www.w3.org/2000/svg">
<path d="M19.7197 16.9776C19.4303 17.6461 19.0877 18.2615 18.6909 18.8273C18.1499 19.5986 17.707 20.1325 17.3656 20.4289C16.8365 20.9156 16.2695 21.1648 15.6624 21.179C15.2266 21.179 14.7009 21.0549 14.0891 20.8034C13.4753 20.5529 12.9111 20.4289 12.3953 20.4289C11.8544 20.4289 11.2742 20.5529 10.6536 20.8034C10.0321 21.0549 9.53139 21.186 9.14858 21.199C8.56638 21.2238 7.98608 20.9675 7.40685 20.4289C7.03715 20.1065 6.57472 19.5537 6.02076 18.7706C5.42641 17.9343 4.93776 16.9646 4.55495 15.8591C4.14497 14.6649 3.93945 13.5086 3.93945 12.3891C3.93945 11.1067 4.21655 10.0007 4.77158 9.0738C5.20778 8.32932 5.78808 7.74205 6.51437 7.31093C7.24066 6.87981 8.02542 6.66012 8.87053 6.64606C9.33295 6.64606 9.93936 6.7891 10.6929 7.07021C11.4444 7.35227 11.9269 7.49531 12.1384 7.49531C12.2966 7.49531 12.8326 7.32806 13.7413 6.99462C14.6005 6.68539 15.3258 6.55736 15.9199 6.60779C17.5298 6.73772 18.7393 7.37235 19.5437 8.51571C18.1038 9.38811 17.3916 10.61 17.4058 12.1775C17.4188 13.3985 17.8617 14.4145 18.7322 15.2212C19.1267 15.5957 19.5673 15.885 20.0575 16.0906C19.9512 16.3988 19.839 16.6941 19.7197 16.9776V16.9776ZM16.0274 2.44824C16.0274 3.40522 15.6778 4.29876 14.9809 5.1258C14.1399 6.10899 13.1227 6.67712 12.0196 6.58747C12.0055 6.47267 11.9974 6.35183 11.9974 6.22486C11.9974 5.30616 12.3973 4.32297 13.1076 3.51908C13.4621 3.11205 13.9131 2.77362 14.46 2.50364C15.0057 2.23769 15.5218 2.09062 16.0073 2.06543C16.0215 2.19336 16.0274 2.3213 16.0274 2.44823V2.44824Z" fill="white"/>
</svg>
