<svg width="24" height="24" viewBox="0 0 24 24" fill="none" xmlns="http://www.w3.org/2000/svg">
<rect width="24" height="24" rx="4" fill="#1877F2"/>
<path d="M2.7832 10.4521L15.6039 1.49316L21.4736 11.3275L13.2442 23.9999H9.59964V21.4481L2.7832 10.4521Z" fill="white"/>
<path d="M24 12.0601C24 5.43606 18.624 0.0600586 12 0.0600586C5.376 0.0600586 0 5.43606 0 12.0601C0 17.8681 4.128 22.7041 9.6 23.8201V15.6601H7.2V12.0601H9.6V9.06006C9.6 6.74406 11.484 4.86006 13.8 4.86006H16.8V8.46006H14.4C13.74 8.46006 13.2 9.00006 13.2 9.66006V12.0601H16.8V15.6601H13.2V24.0001C19.26 23.4001 24 18.2881 24 12.0601Z" fill="#1877F2"/>
</svg>
