<svg width="24" height="24" viewBox="0 0 24 24" fill="none" xmlns="http://www.w3.org/2000/svg">
<path fill-rule="evenodd" clip-rule="evenodd" d="M21.3395 12.2163C21.3395 11.5405 21.2789 10.8908 21.1663 10.2671H12.1914V13.9532H17.3199C17.099 15.1444 16.4276 16.1536 15.4184 16.8293V19.2203H18.4981C20.3 17.5613 21.3395 15.1184 21.3395 12.2163Z" fill="#4285F4"/>
<path fill-rule="evenodd" clip-rule="evenodd" d="M12.1896 21.5293C14.7625 21.5293 16.9196 20.676 18.4962 19.2206L15.4165 16.8296C14.5632 17.4014 13.4717 17.7392 12.1896 17.7392C9.70761 17.7392 7.60683 16.0629 6.85748 13.8105H3.67383V16.2795C5.24183 19.3938 8.46447 21.5293 12.1896 21.5293Z" fill="#34A853"/>
<path fill-rule="evenodd" clip-rule="evenodd" d="M6.85933 13.8103C6.66875 13.2385 6.56046 12.6278 6.56046 11.9997C6.56046 11.3717 6.66875 10.7609 6.85933 10.1892V7.72021H3.67568C3.03029 9.00667 2.66211 10.4621 2.66211 11.9997C2.66211 13.5374 3.03029 14.9928 3.67568 16.2793L6.85933 13.8103Z" fill="#FBBC05"/>
<path fill-rule="evenodd" clip-rule="evenodd" d="M12.1896 6.26076C13.5886 6.26076 14.8448 6.74156 15.8323 7.68583L18.5655 4.95265C16.9152 3.41497 14.7581 2.4707 12.1896 2.4707C8.46447 2.4707 5.24183 4.60613 3.67383 7.72048L6.85748 10.1894C7.60683 7.93705 9.70761 6.26076 12.1896 6.26076Z" fill="#EA4335"/>
</svg>
