<svg width="24" height="24" viewBox="0 0 24 24" fill="none" xmlns="http://www.w3.org/2000/svg">
<rect width="24" height="24" rx="4" fill="#06C755"/>
<path fill-rule="evenodd" clip-rule="evenodd" d="M21 10.7537C21 6.8096 16.9627 3.6001 12 3.6001C7.0373 3.6001 3 6.8096 3 10.7537C3 14.2905 6.20555 17.2529 10.5263 17.8123C10.8198 17.8743 11.2189 18.0015 11.3192 18.247C11.4103 18.4701 11.3791 18.8196 11.3488 19.0444C11.3488 19.0444 11.2433 19.6666 11.2205 19.7988L11.2172 19.8177C11.1741 20.056 11.0649 20.66 12 20.2748C12.9608 19.879 17.1829 17.2851 19.0708 15.1556C20.3749 13.755 21 12.3304 21 10.7537ZM18.0053 13.0319H15.4746C15.4299 13.0319 15.387 13.0145 15.3553 12.9835C15.3237 12.9525 15.3059 12.9105 15.3059 12.8667V9.01593C15.3059 8.97209 15.3237 8.93006 15.3553 8.89906C15.387 8.86807 15.4299 8.85066 15.4746 8.85066H18.0053C18.0501 8.85066 18.093 8.86807 18.1246 8.89906C18.1563 8.93006 18.174 8.97209 18.174 9.01593V9.64147C18.174 9.6853 18.1563 9.72733 18.1246 9.75833C18.093 9.78932 18.0501 9.80673 18.0053 9.80673H16.287V10.4554H18.0053C18.0501 10.4554 18.093 10.4728 18.1246 10.5038C18.1563 10.5348 18.174 10.5768 18.174 10.6207V11.2561C18.174 11.3 18.1563 11.342 18.1246 11.373C18.093 11.404 18.0501 11.4214 18.0053 11.4214H16.287V12.0709H18.0053C18.0501 12.0709 18.093 12.0883 18.1246 12.1193C18.1563 12.1503 18.174 12.1923 18.174 12.2362V12.8609C18.1748 12.8831 18.1711 12.9052 18.1629 12.9259C18.1548 12.9466 18.1425 12.9655 18.1268 12.9815C18.111 12.9975 18.0921 13.0102 18.0713 13.0188C18.0504 13.0275 18.028 13.0319 18.0053 13.0319ZM8.77201 12.9835C8.74037 13.0145 8.69746 13.0319 8.65271 13.0319L8.65862 13.0295H6.12792C6.08318 13.0295 6.04027 13.012 6.00863 12.9811C5.97699 12.9501 5.95921 12.908 5.95921 12.8642V9.01923C5.95921 8.9754 5.97699 8.93336 6.00863 8.90237C6.04027 8.87138 6.08318 8.85396 6.12792 8.85396H6.76566C6.8104 8.85396 6.85332 8.87138 6.88496 8.90237C6.9166 8.93336 6.93437 8.9754 6.93437 9.01923V12.0767H8.65271C8.69746 12.0767 8.74037 12.0941 8.77201 12.1251C8.80365 12.1561 8.82143 12.1981 8.82143 12.242V12.8667C8.82143 12.9105 8.80365 12.9525 8.77201 12.9835ZM10.1745 8.84818H9.53677C9.44173 8.84818 9.36468 8.92365 9.36468 9.01675V12.8642C9.36468 12.9573 9.44173 13.0328 9.53677 13.0328H10.1745C10.2695 13.0328 10.3466 12.9573 10.3466 12.8642V9.01675C10.3466 8.92365 10.2695 8.84818 10.1745 8.84818ZM13.882 8.84735H14.5197C14.5422 8.84734 14.5644 8.85173 14.5851 8.86024C14.6058 8.86875 14.6245 8.88122 14.6402 8.89692C14.6559 8.91262 14.6683 8.93123 14.6766 8.95167C14.6848 8.9721 14.6889 8.99395 14.6884 9.01593V12.8493C14.6884 12.8931 14.6707 12.9352 14.639 12.9662C14.6074 12.9972 14.5645 13.0146 14.5197 13.0146H13.8854C13.87 13.0143 13.8547 13.0124 13.8398 13.0088H13.8002L13.79 13.0022C13.7728 12.9906 13.7579 12.9761 13.7462 12.9592L11.9468 10.5794V12.8873C11.9468 12.9312 11.9291 12.9732 11.8974 13.0042C11.8658 13.0352 11.8229 13.0526 11.7781 13.0526H11.1395C11.0948 13.0526 11.0519 13.0352 11.0202 13.0042C10.9886 12.9732 10.9708 12.9312 10.9708 12.8873V9.03989C10.9708 8.99606 10.9886 8.95402 11.0202 8.92303C11.0519 8.89203 11.0948 8.87462 11.1395 8.87462H11.854L11.8633 8.87958H11.8684L11.8777 8.88619H11.8827L11.892 8.89362L11.9021 8.90354C11.9076 8.90878 11.9124 8.9146 11.9165 8.9209L13.7133 11.2983V9.01262C13.7133 8.96879 13.731 8.92675 13.7627 8.89576C13.7943 8.86476 13.8372 8.84735 13.882 8.84735Z" fill="white"/>
</svg>
