<svg width="24" height="24" viewBox="0 0 24 24" fill="none" xmlns="http://www.w3.org/2000/svg">
<rect width="24" height="24" rx="4" fill="#0A66C2"/>
<path d="M19.4956 19.4965H16.3914V14.6266C16.3914 13.4654 16.3707 11.9705 14.7769 11.9705C13.1601 11.9705 12.9127 13.2357 12.9127 14.5421V19.4961H9.80859V9.48176H12.7886V10.8503H12.8304C13.4371 9.81106 14.5695 9.18804 15.7706 9.23272C18.9168 9.23272 19.4969 11.3058 19.4969 14.0028L19.4956 19.4965Z" fill="white"/>
<path d="M6.3057 8.11296C6.30551 8.11296 6.30542 8.11296 6.30532 8.11296C5.31709 8.11296 4.50391 7.29845 4.50391 6.30848C4.50391 5.31852 5.31709 4.50391 6.30532 4.50391C7.29346 4.50391 8.10655 5.31833 8.10674 6.30811C8.10674 6.3082 8.10674 6.30829 8.10674 6.30848C8.10674 7.29826 7.29374 8.11287 6.3057 8.11296Z" fill="white"/>
<path d="M7.85545 19.4967H4.74805V9.48193H7.85545V19.4967Z" fill="white"/>
</svg>
