<svg width="24" height="24" viewBox="0 0 24 24" fill="none" xmlns="http://www.w3.org/2000/svg">
<path d="M20.1079 3.5625L13.0762 8.83594L14.3838 5.72813L20.1079 3.5625Z" fill="#E17726" stroke="#E17726" stroke-width="0.1875" stroke-linecap="round" stroke-linejoin="round"/>
<path d="M3.89062 3.5625L10.8597 8.88516L9.61477 5.72813L3.89062 3.5625Z" fill="#E27625" stroke="#E27625" stroke-width="0.1875" stroke-linecap="round" stroke-linejoin="round"/>
<path d="M17.576 15.7898L15.7051 18.6867L19.7113 19.8047L20.8589 15.8531L17.576 15.7898Z" fill="#E27625" stroke="#E27625" stroke-width="0.1875" stroke-linecap="round" stroke-linejoin="round"/>
<path d="M3.14453 15.8531L4.28518 19.8047L8.28444 18.6867L6.42043 15.7898L3.14453 15.8531Z" fill="#E27625" stroke="#E27625" stroke-width="0.1875" stroke-linecap="round" stroke-linejoin="round"/>
<path d="M8.06984 10.8961L6.95703 12.5977L10.9215 12.7805L10.7894 8.4563L8.06984 10.8961Z" fill="#E27625" stroke="#E27625" stroke-width="0.1875" stroke-linecap="round" stroke-linejoin="round"/>
<path d="M15.9278 10.896L13.1666 8.40698L13.0762 12.7804L17.0406 12.5976L15.9278 10.896Z" fill="#E27625" stroke="#E27625" stroke-width="0.1875" stroke-linecap="round" stroke-linejoin="round"/>
<path d="M8.28516 18.6866L10.6847 17.5124L8.61902 15.8811L8.28516 18.6866Z" fill="#E27625" stroke="#E27625" stroke-width="0.1875" stroke-linecap="round" stroke-linejoin="round"/>
<path opacity="0.8" d="M13.3145 17.5124L15.707 18.6866L15.3801 15.8811L13.3145 17.5124Z" fill="#E27625" stroke="#E27625" stroke-width="0.1875" stroke-linecap="round" stroke-linejoin="round"/>
<path d="M15.707 18.6869L13.3145 17.5127L13.5092 19.0877L13.4883 19.7557L15.707 18.6869Z" fill="#D5BFB2" stroke="#D5BFB2" stroke-width="0.1875" stroke-linecap="round" stroke-linejoin="round"/>
<path d="M8.28516 18.6869L10.5108 19.7557L10.4969 19.0877L10.6847 17.5127L8.28516 18.6869Z" fill="#D5BFB2" stroke="#D5BFB2" stroke-width="0.1875" stroke-linecap="round" stroke-linejoin="round"/>
<path d="M10.5517 14.8405L8.5625 14.2499L9.96744 13.5959L10.5517 14.8405Z" fill="#233447" stroke="#233447" stroke-width="0.1875" stroke-linecap="round" stroke-linejoin="round"/>
<path d="M13.4453 14.8405L14.0296 13.5959L15.4415 14.2499L13.4453 14.8405Z" fill="#233447" stroke="#233447" stroke-width="0.1875" stroke-linecap="round" stroke-linejoin="round"/>
<path d="M8.28585 18.6867L8.63363 15.7898L6.42188 15.8531L8.28585 18.6867Z" fill="#CC6228" stroke="#CC6228" stroke-width="0.1875" stroke-linecap="round" stroke-linejoin="round"/>
<path d="M15.3672 15.7898L15.708 18.6867L17.5789 15.8531L15.3672 15.7898Z" fill="#CC6228" stroke="#CC6228" stroke-width="0.1875" stroke-linecap="round" stroke-linejoin="round"/>
<path d="M17.0406 12.5977L13.0762 12.7805L13.4448 14.8407L14.029 13.5961L15.4409 14.25L17.0406 12.5977Z" fill="#CC6228" stroke="#CC6228" stroke-width="0.1875" stroke-linecap="round" stroke-linejoin="round"/>
<path d="M8.56368 14.25L9.96862 13.5961L10.5529 14.8407L10.9215 12.7805L6.95703 12.5977L8.56368 14.25Z" fill="#CC6228" stroke="#CC6228" stroke-width="0.1875" stroke-linecap="round" stroke-linejoin="round"/>
<path d="M6.95703 12.5977L8.61934 15.8813L8.56366 14.25L6.95703 12.5977Z" fill="#E27525" stroke="#E27525" stroke-width="0.1875" stroke-linecap="round" stroke-linejoin="round"/>
<path d="M15.4415 14.25L15.3789 15.8813L17.0412 12.5977L15.4415 14.25Z" fill="#E27525" stroke="#E27525" stroke-width="0.1875" stroke-linecap="round" stroke-linejoin="round"/>
<path d="M10.9214 12.7805L10.5527 14.8407L11.0187 17.2735L11.1231 14.0673L10.9214 12.7805Z" fill="#E27525" stroke="#E27525" stroke-width="0.1875" stroke-linecap="round" stroke-linejoin="round"/>
<path d="M13.0776 12.7805L12.8828 14.0603L12.9802 17.2735L13.4462 14.8407L13.0776 12.7805Z" fill="#E27525" stroke="#E27525" stroke-width="0.1875" stroke-linecap="round" stroke-linejoin="round"/>
<path d="M13.4465 14.8407L12.9805 17.2734L13.3143 17.5125L15.38 15.8813L15.4426 14.25L13.4465 14.8407Z" fill="#F5841F" stroke="#F5841F" stroke-width="0.1875" stroke-linecap="round" stroke-linejoin="round"/>
<path d="M8.5625 14.25L8.61818 15.8813L10.6838 17.5125L11.0177 17.2734L10.5517 14.8407L8.5625 14.25Z" fill="#F5841F" stroke="#F5841F" stroke-width="0.1875" stroke-linecap="round" stroke-linejoin="round"/>
<path d="M13.4877 19.7555L13.5085 19.0876L13.3277 18.9329H10.6708L10.4969 19.0876L10.5108 19.7555L8.28516 18.6868L9.06413 19.3336L10.643 20.4376H13.3485L14.9343 19.3336L15.7063 18.6868L13.4877 19.7555Z" fill="#C0AC9D" stroke="#C0AC9D" stroke-width="0.1875" stroke-linecap="round" stroke-linejoin="round"/>
<path d="M13.3129 17.5125L12.9791 17.2734H11.0177L10.6839 17.5125L10.4961 19.0875L10.67 18.9328H13.3269L13.5077 19.0875L13.3129 17.5125Z" fill="#161616" stroke="#161616" stroke-width="0.1875" stroke-linecap="round" stroke-linejoin="round"/>
<path d="M20.4087 9.18046L20.9999 6.26954L20.1097 3.5625L13.3145 8.66019L15.9296 10.8961L19.6228 11.986L20.4366 11.0227L20.0819 10.7625L20.6452 10.2422L20.214 9.90471L20.7774 9.46876L20.4087 9.18046Z" fill="#763E1A" stroke="#763E1A" stroke-width="0.1875" stroke-linecap="round" stroke-linejoin="round"/>
<path d="M3 6.26954L3.59815 9.18046L3.21561 9.46876L3.78594 9.90471L3.35472 10.2422L3.91808 10.7625L3.56337 11.0227L4.37713 11.986L8.07037 10.8961L10.6855 8.66019L3.89027 3.5625L3 6.26954Z" fill="#763E1A" stroke="#763E1A" stroke-width="0.1875" stroke-linecap="round" stroke-linejoin="round"/>
<path d="M19.6216 11.9861L15.9284 10.8962L17.0412 12.5978L15.3789 15.8814L17.5767 15.8533H20.8596L19.6216 11.9861Z" fill="#F5841F" stroke="#F5841F" stroke-width="0.1875" stroke-linecap="round" stroke-linejoin="round"/>
<path d="M8.06879 10.8962L4.3756 11.9861L3.14453 15.8533H6.42043L8.61825 15.8814L6.95598 12.5978L8.06879 10.8962Z" fill="#F5841F" stroke="#F5841F" stroke-width="0.1875" stroke-linecap="round" stroke-linejoin="round"/>
<path d="M13.077 12.7806L13.3135 8.66028L14.3845 5.72827H9.61328L10.6844 8.66028L10.9208 12.7806L11.0113 14.0744L11.0182 17.2736H12.9796L12.9865 14.0744L13.077 12.7806Z" fill="#F5841F" stroke="#F5841F" stroke-width="0.1875" stroke-linecap="round" stroke-linejoin="round"/>
</svg>
