<svg width="24" height="24" viewBox="0 0 24 24" fill="none" xmlns="http://www.w3.org/2000/svg">
<path d="M5.91439 14.7692C5.91439 15.9829 4.92288 16.9744 3.70915 16.9744C2.49541 16.9744 1.50391 15.9829 1.50391 14.7692C1.50391 13.5555 2.49541 12.564 3.70915 12.564H5.91439V14.7692Z" fill="#E01E5A"/>
<path d="M7.02539 14.7692C7.02539 13.5555 8.01689 12.564 9.23063 12.564C10.4444 12.564 11.4359 13.5555 11.4359 14.7692V20.2909C11.4359 21.5046 10.4444 22.4961 9.23063 22.4961C8.01689 22.4961 7.02539 21.5046 7.02539 20.2909V14.7692Z" fill="#E01E5A"/>
<path d="M9.23063 5.91439C8.01689 5.91439 7.02539 4.92288 7.02539 3.70915C7.02539 2.49541 8.01689 1.50391 9.23063 1.50391C10.4444 1.50391 11.4359 2.49541 11.4359 3.70915V5.91439H9.23063Z" fill="#36C5F0"/>
<path d="M9.23079 7.02588C10.4445 7.02588 11.436 8.01738 11.436 9.23112C11.436 10.4449 10.4445 11.4364 9.23079 11.4364H3.70915C2.49541 11.4364 1.50391 10.4449 1.50391 9.23112C1.50391 8.01738 2.49541 7.02588 3.70915 7.02588H9.23079Z" fill="#36C5F0"/>
<path d="M18.082 9.23112C18.082 8.01738 19.0735 7.02588 20.2873 7.02588C21.501 7.02588 22.4925 8.01738 22.4925 9.23112C22.4925 10.4449 21.501 11.4364 20.2873 11.4364H18.082V9.23112Z" fill="#2EB67D"/>
<path d="M16.971 9.23079C16.971 10.4445 15.9795 11.436 14.7658 11.436C13.552 11.436 12.5605 10.4445 12.5605 9.23079V3.70915C12.5605 2.49541 13.552 1.50391 14.7658 1.50391C15.9795 1.50391 16.971 2.49541 16.971 3.70915V9.23079Z" fill="#2EB67D"/>
<path d="M14.7658 18.0864C15.9795 18.0864 16.971 19.0779 16.971 20.2917C16.971 21.5054 15.9795 22.4969 14.7658 22.4969C13.552 22.4969 12.5605 21.5054 12.5605 20.2917V18.0864H14.7658Z" fill="#ECB22E"/>
<path d="M14.7658 16.9749C13.552 16.9749 12.5605 15.9834 12.5605 14.7697C12.5605 13.556 13.552 12.5645 14.7658 12.5645H20.2874C21.5012 12.5645 22.4927 13.556 22.4927 14.7697C22.4927 15.9834 21.5012 16.9749 20.2874 16.9749H14.7658Z" fill="#ECB22E"/>
</svg>
