<svg width="24" height="24" viewBox="0 0 24 24" fill="none" xmlns="http://www.w3.org/2000/svg">
<path fill-rule="evenodd" clip-rule="evenodd" d="M17.9454 8.16551C14.6608 4.88624 9.33562 4.88624 6.05111 8.16551L5.61724 8.59869C5.45301 8.76265 5.45301 9.02849 5.61724 9.19246L6.96947 10.5425C7.05158 10.6245 7.18471 10.6245 7.26682 10.5425L7.84937 9.96091C10.1407 7.6732 13.8557 7.6732 16.1471 9.96091L16.6911 10.504C16.7732 10.586 16.9063 10.586 16.9884 10.504L18.3406 9.15394C18.5049 8.98998 18.5049 8.72414 18.3406 8.56017L17.9454 8.16551ZM21.9471 12.1593L20.7437 10.9577C20.5794 10.7937 20.3132 10.7937 20.1489 10.9577L16.2975 14.803C16.2564 14.844 16.1899 14.844 16.1488 14.803L12.2973 10.9576L12.2973 10.9576C12.1331 10.7936 11.8668 10.7936 11.7026 10.9576L7.85125 14.803C7.8102 14.844 7.74363 14.844 7.70258 14.803L3.85105 10.9576C3.68683 10.7937 3.42057 10.7937 3.25634 10.9576L2.05286 12.1592C1.88863 12.3231 1.88863 12.589 2.05286 12.753L7.4796 18.1711C7.64383 18.335 7.91009 18.335 8.07431 18.1711L11.9257 14.3257C11.9668 14.2847 12.0333 14.2847 12.0744 14.3257L15.9258 18.1711C16.0901 18.335 16.3563 18.335 16.5206 18.1711L21.9471 12.753C22.1114 12.5891 22.1114 12.3232 21.9471 12.1593Z" fill="#3B99FC"/>
</svg>
